<svg width="570" height="570" viewBox="0 0 570 570" fill="none" xmlns="http://www.w3.org/2000/svg">
<rect x="10" y="10" width="550" height="550" rx="275" fill="url(#paint0_linear_48_21)" stroke="url(#paint1_linear_48_21)" stroke-width="20"/>
<path fill-rule="evenodd" clip-rule="evenodd" d="M170.098 143.408C150.454 150.734 138.082 168.462 138 189.4C137.927 208.029 148.376 224.725 165.469 233.299C172.598 236.873 174.65 237.159 198.115 237.843C223.844 238.592 227.783 239.458 230.537 244.972C231.281 246.46 234.634 255.575 237.986 265.224C241.339 274.874 245.632 286.044 247.526 290.047C249.67 294.579 249.343 299.894 246.658 304.129L245.532 305.905C233.469 324.929 212.817 348.957 191.734 368.501C181.501 377.987 178.463 381.799 174.815 389.735C170.963 398.116 170.374 400.863 170.411 410.31C170.465 424.415 174.218 433.741 183.708 443.353C196.401 456.208 195.015 456 267.82 456H322.869C328.501 456 334.055 454.684 339.088 452.157C348.122 447.62 356.437 438.926 360.788 429.463C363.314 423.971 363.917 420.287 363.917 410.34C363.917 390.577 361.847 387.217 331.003 356.953C315.911 342.143 300.631 323.572 290.213 307.376L289.455 306.197C285.753 300.443 285.274 293.189 288.186 286.998C292.499 277.822 296.854 266.596 302.897 249.065C304.206 245.269 306.593 241.355 308.204 240.368C310.088 239.213 319.816 238.307 335.494 237.826C358.704 237.115 360.256 236.883 368.295 232.928C378.13 228.088 387.628 218.005 391.981 207.783C395.971 198.412 396.013 180.561 392.067 171.17C387.989 161.464 377.823 150.191 368.929 145.513C363.858 142.847 358.219 141.444 352.49 141.423L269.173 141.12C183.361 140.806 176.66 140.962 170.098 143.408ZM171.812 178.527C165.963 184.027 164.488 190.619 167.558 197.546C171.66 206.804 174.056 207.403 207.122 207.439C233.237 207.467 237.35 207.793 242.351 210.224C251.372 214.61 256.593 223.587 266.425 251.618C267.266 254.017 267.85 253.262 269.808 247.25C275.793 228.869 282.199 217.827 290.598 211.411C294.692 208.283 296.37 208.099 327.149 207.407L353.246 206.821C357.161 206.733 360.847 204.957 363.354 201.949C367.917 196.477 368.764 187.097 365.188 181.631C360.136 173.905 362.289 174.069 265.903 174.069H183.064C178.882 174.069 174.858 175.663 171.812 178.527ZM260.146 338.293C250.44 352.101 234.917 369.413 216.404 387.075C197.78 404.843 195.789 408.564 200.116 417.525C204.355 426.306 205.518 426.447 269.85 425.98L298.863 425.77L322.125 425.602C325.805 425.575 329.321 424.076 331.889 421.44C339.885 413.233 338.219 405.036 326.353 394.198C305.63 375.27 293.01 362.11 280.36 346.232C272.882 336.846 266.698 329.197 266.615 329.234C266.534 329.27 263.621 333.346 260.146 338.293Z" fill="black" fill-opacity="0.12"/>
<path fill-rule="evenodd" clip-rule="evenodd" d="M185.973 137.301C165.793 144.302 153.084 161.241 153 181.249C152.925 199.05 163.659 215.004 181.218 223.197C188.541 226.612 190.648 226.885 214.753 227.539C241.182 228.255 245.228 229.082 248.057 234.351C248.822 235.773 252.266 244.483 255.71 253.703C259.154 262.924 263.564 273.597 265.509 277.423C267.691 281.713 267.363 286.851 264.652 290.828L263.461 292.576C251.069 310.754 229.855 333.715 208.197 352.39C197.686 361.454 194.565 365.097 190.818 372.68C186.861 380.689 186.256 383.314 186.294 392.34C186.349 405.819 190.205 414.73 199.953 423.915C212.991 436.199 211.568 436 286.356 436H343.025C348.74 436 354.386 434.746 359.565 432.328C368.845 427.993 377.386 419.685 381.856 410.643C384.451 405.395 385.071 401.874 385.071 392.369C385.071 373.485 382.944 370.274 351.26 341.355C335.757 327.203 320.061 309.458 309.359 293.982L308.529 292.781C304.794 287.38 304.314 280.369 307.277 274.509C311.708 265.741 316.18 255.014 322.388 238.262C323.733 234.635 326.185 230.895 327.84 229.952C329.775 228.848 339.768 227.982 355.874 227.522C379.715 226.844 381.31 226.622 389.567 222.842C399.671 218.217 409.427 208.582 413.898 198.815C417.997 189.86 418.04 172.803 413.987 163.829C409.798 154.554 399.355 143.782 390.219 139.312C385.001 136.76 379.272 135.424 373.463 135.404L287.746 135.114C199.597 134.815 192.713 134.963 185.973 137.301ZM187.733 170.859C181.725 176.114 180.21 182.414 183.363 189.033C187.577 197.88 190.038 198.452 224.004 198.486C250.831 198.513 255.056 198.824 260.194 201.147C269.46 205.339 274.823 213.916 284.922 240.701C285.787 242.994 286.387 242.272 288.398 236.528C294.546 218.964 301.127 208.412 309.754 202.282C313.96 199.293 315.684 199.117 347.301 198.456L374.365 197.89C378.239 197.809 381.906 196.125 384.493 193.24C389.179 188.011 390.05 179.048 386.376 173.825C381.186 166.442 383.398 166.599 284.387 166.599H199.077C194.904 166.599 190.874 168.113 187.733 170.859ZM278.473 323.525C268.502 336.719 252.556 353.261 233.539 370.139C214.408 387.117 212.363 390.673 216.808 399.235C221.162 407.626 222.357 407.76 288.441 407.314L318.244 407.114L342.347 406.951C346.008 406.927 349.522 405.505 352.17 402.976C360.384 395.134 358.672 387.301 346.483 376.945C325.195 358.858 312.232 346.283 299.238 331.111C291.556 322.142 285.203 314.833 285.119 314.868C285.035 314.902 282.043 318.797 278.473 323.525Z" fill="white" stroke="black" stroke-width="8"/>
<defs>
<linearGradient id="paint0_linear_48_21" x1="285" y1="20" x2="285" y2="550" gradientUnits="userSpaceOnUse">
<stop stop-color="#674CE7"/>
<stop offset="1" stop-color="#3A2A81"/>
</linearGradient>
<linearGradient id="paint1_linear_48_21" x1="403" y1="39.5" x2="208" y2="542.5" gradientUnits="userSpaceOnUse">
<stop stop-color="#3F5176"/>
<stop offset="0.524038" stop-color="#02121F"/>
</linearGradient>
</defs>
</svg>
