<svg width="1309" height="269" viewBox="0 0 1309 269" fill="none" xmlns="http://www.w3.org/2000/svg">
<g filter="url(#filter0_i_48_7)">
<g clip-path="url(#paint0_diamond_48_7_clip_path)" data-figma-skip-parse="true"><g transform="matrix(0 0.19175 -0.229313 0 117.969 191.75)"><rect x="0" y="0" width="1005.22" height="519.075" fill="url(#paint0_diamond_48_7)" opacity="1" shape-rendering="crispEdges"/><rect x="0" y="0" width="1005.22" height="519.075" transform="scale(1 -1)" fill="url(#paint0_diamond_48_7)" opacity="1" shape-rendering="crispEdges"/><rect x="0" y="0" width="1005.22" height="519.075" transform="scale(-1 1)" fill="url(#paint0_diamond_48_7)" opacity="1" shape-rendering="crispEdges"/><rect x="0" y="0" width="1005.22" height="519.075" transform="scale(-1)" fill="url(#paint0_diamond_48_7)" opacity="1" shape-rendering="crispEdges"/></g></g><path fill-rule="evenodd" clip-rule="evenodd" d="M29.4755 2.05665C11.4362 8.3127 0.0749232 23.4515 0.000349802 41.3321C-0.0667663 57.2409 9.52835 71.4984 25.2248 78.8202C31.7711 81.8727 33.6553 82.1166 55.2033 82.7008C78.8294 83.3408 82.4462 84.0798 84.9755 88.7885C85.6591 90.0598 88.7377 97.8433 91.8163 106.084C94.895 114.324 98.8374 123.863 100.576 127.282L103.739 133.498L98.7455 140.824C87.6676 157.069 68.7036 177.589 49.3431 194.279C39.9468 202.379 37.1565 205.635 33.8069 212.412C30.2697 219.569 29.729 221.915 29.7626 229.982C29.8123 242.027 33.2588 249.992 41.9727 258.2C53.6286 269.178 52.3558 269 119.212 269H177.628L184.656 265.718C192.953 261.844 200.588 254.419 204.584 246.339C206.903 241.648 207.457 238.502 207.457 230.008C207.457 213.131 205.556 210.262 177.233 184.417C163.373 171.77 149.342 155.911 139.776 142.08L133.616 133.175L137.914 124.677C141.875 116.842 145.873 107.255 151.423 92.2842C152.625 89.0423 154.817 85.7001 156.296 84.8571C158.026 83.8706 166.959 83.0969 181.357 82.686C202.67 82.0794 204.095 81.8814 211.477 78.5033C220.509 74.3702 229.23 65.7597 233.227 57.0305C236.891 49.0278 236.93 33.7838 233.307 25.7638C229.562 17.4752 220.227 7.84851 212.06 3.854L204.972 0.388035L120.455 0.10209C41.6546 -0.165284 35.501 -0.0328315 29.4755 2.05665ZM31.049 32.0471C25.6784 36.7435 24.3237 42.3732 27.1426 48.2888C30.9098 56.1949 33.1097 56.7062 63.4735 56.7371C87.4551 56.7606 91.2322 57.0391 95.8247 59.115C104.109 62.8607 108.902 70.5267 117.931 94.4641C118.704 96.5127 119.239 95.8678 121.038 90.7344C126.534 75.0374 132.417 65.6075 140.129 60.1288C143.888 57.4575 145.43 57.3003 173.693 56.7099L203.316 56.0909L206.94 52.0481C211.13 47.3753 211.908 39.3652 208.624 34.6973C203.985 28.0996 205.962 28.2395 117.452 28.2395H35.4041L31.049 32.0471ZM112.165 168.482C103.252 180.274 88.9975 195.057 71.9972 210.14C54.8951 225.314 53.0668 228.491 57.0403 236.144C60.933 243.643 62.0007 243.763 121.076 243.364L147.718 243.185L174.36 243.005L178.046 239.487C185.389 232.478 183.859 225.479 172.962 216.223C153.932 200.059 142.344 188.821 130.728 175.262C123.861 167.247 118.182 160.715 118.106 160.746C118.031 160.777 115.357 164.257 112.165 168.482Z" data-figma-gradient-fill="{&#34;type&#34;:&#34;GRADIENT_DIAMOND&#34;,&#34;stops&#34;:[{&#34;color&#34;:{&#34;r&#34;:0.12941177189350128,&#34;g&#34;:0.18431372940540314,&#34;b&#34;:0.77254903316497803,&#34;a&#34;:1.0},&#34;position&#34;:0.0},{&#34;color&#34;:{&#34;r&#34;:0.47450980544090271,&#34;g&#34;:0.23921568691730499,&#34;b&#34;:0.90588235855102539,&#34;a&#34;:1.0},&#34;position&#34;:0.20000000298023224},{&#34;color&#34;:{&#34;r&#34;:0.10588235408067703,&#34;g&#34;:0.59215688705444336,&#34;b&#34;:0.96862745285034180,&#34;a&#34;:1.0},&#34;position&#34;:1.0}],&#34;stopsVar&#34;:[{&#34;color&#34;:{&#34;r&#34;:0.12941177189350128,&#34;g&#34;:0.18431372940540314,&#34;b&#34;:0.77254903316497803,&#34;a&#34;:1.0},&#34;position&#34;:0.0},{&#34;color&#34;:{&#34;r&#34;:0.47450980544090271,&#34;g&#34;:0.23921568691730499,&#34;b&#34;:0.90588235855102539,&#34;a&#34;:1.0},&#34;position&#34;:0.20000000298023224},{&#34;color&#34;:{&#34;r&#34;:0.10588235408067703,&#34;g&#34;:0.59215688705444336,&#34;b&#34;:0.96862745285034180,&#34;a&#34;:1.0},&#34;position&#34;:1.0}],&#34;transform&#34;:{&#34;m00&#34;:2.8082769196560199e-14,&#34;m01&#34;:-458.62640380859375,&#34;m02&#34;:347.28244018554688,&#34;m10&#34;:383.5002441406250,&#34;m11&#34;:2.3482617963316819e-14,&#34;m12&#34;:2.3891999489933369e-13},&#34;opacity&#34;:1.0,&#34;blendMode&#34;:&#34;NORMAL&#34;,&#34;visible&#34;:true}"/>
</g>
<path d="M342.812 83.8906V56H474.219V83.8906H425.234V216H391.797V83.8906H342.812ZM495.234 216V96H528.516V216H495.234ZM511.953 80.5312C507.005 80.5312 502.76 78.8906 499.219 75.6094C495.729 72.276 493.984 68.2917 493.984 63.6562C493.984 59.0729 495.729 55.1406 499.219 51.8594C502.76 48.526 507.005 46.8594 511.953 46.8594C516.901 46.8594 521.12 48.526 524.609 51.8594C528.151 55.1406 529.922 59.0729 529.922 63.6562C529.922 68.2917 528.151 72.276 524.609 75.6094C521.12 78.8906 516.901 80.5312 511.953 80.5312ZM555.176 216V96H586.895V117.172H588.301C590.801 110.141 594.967 104.594 600.801 100.531C606.634 96.4687 613.613 94.4375 621.738 94.4375C629.967 94.4375 636.973 96.4948 642.754 100.609C648.535 104.672 652.389 110.193 654.316 117.172H655.566C658.014 110.297 662.441 104.802 668.848 100.687C675.306 96.5208 682.936 94.4375 691.738 94.4375C702.936 94.4375 712.025 98.0052 719.004 105.141C726.035 112.224 729.551 122.276 729.551 135.297V216H696.348V141.859C696.348 135.193 694.577 130.193 691.035 126.859C687.493 123.526 683.066 121.859 677.754 121.859C671.712 121.859 666.999 123.786 663.613 127.641C660.228 131.443 658.535 136.469 658.535 142.719V216H626.27V141.156C626.27 135.271 624.577 130.583 621.191 127.094C617.858 123.604 613.457 121.859 607.988 121.859C604.29 121.859 600.957 122.797 597.988 124.672C595.072 126.495 592.754 129.073 591.035 132.406C589.316 135.687 588.457 139.542 588.457 143.969V216H555.176ZM810.527 218.344C798.184 218.344 787.559 215.844 778.652 210.844C769.798 205.792 762.975 198.656 758.184 189.437C753.392 180.167 750.996 169.203 750.996 156.547C750.996 144.203 753.392 133.37 758.184 124.047C762.975 114.724 769.72 107.458 778.418 102.25C787.168 97.0417 797.428 94.4375 809.199 94.4375C817.116 94.4375 824.486 95.7135 831.309 98.2656C838.184 100.766 844.173 104.542 849.277 109.594C854.434 114.646 858.444 121 861.309 128.656C864.173 136.26 865.605 145.167 865.605 155.375V164.516H764.277V143.891H834.277C834.277 139.099 833.236 134.854 831.152 131.156C829.069 127.458 826.178 124.568 822.48 122.484C818.835 120.349 814.59 119.281 809.746 119.281C804.694 119.281 800.215 120.453 796.309 122.797C792.454 125.089 789.434 128.187 787.246 132.094C785.059 135.948 783.939 140.245 783.887 144.984V164.594C783.887 170.531 784.98 175.661 787.168 179.984C789.408 184.307 792.559 187.641 796.621 189.984C800.684 192.328 805.501 193.5 811.074 193.5C814.772 193.5 818.158 192.979 821.23 191.938C824.303 190.896 826.934 189.333 829.121 187.25C831.309 185.167 832.975 182.615 834.121 179.594L864.902 181.625C863.34 189.021 860.137 195.479 855.293 201C850.501 206.469 844.303 210.74 836.699 213.813C829.147 216.833 820.423 218.344 810.527 218.344ZM920.605 56V216H887.324V56H920.605ZM967.812 261C963.594 261 959.635 260.661 955.938 259.984C952.292 259.359 949.271 258.552 946.875 257.562L954.375 232.719C958.281 233.917 961.797 234.568 964.922 234.672C968.099 234.776 970.833 234.047 973.125 232.484C975.469 230.922 977.37 228.266 978.828 224.516L980.781 219.438L937.734 96H972.734L997.578 184.125H998.828L1023.91 96H1059.14L1012.5 228.969C1010.26 235.427 1007.21 241.052 1003.36 245.844C999.557 250.688 994.74 254.411 988.906 257.016C983.073 259.672 976.042 261 967.812 261ZM1088.11 218.031C1082.95 218.031 1078.52 216.208 1074.82 212.562C1071.18 208.865 1069.36 204.437 1069.36 199.281C1069.36 194.177 1071.18 189.802 1074.82 186.156C1078.52 182.51 1082.95 180.687 1088.11 180.687C1093.11 180.687 1097.48 182.51 1101.23 186.156C1104.98 189.802 1106.86 194.177 1106.86 199.281C1106.86 202.719 1105.97 205.87 1104.2 208.734C1102.48 211.547 1100.21 213.812 1097.4 215.531C1094.59 217.198 1091.49 218.031 1088.11 218.031Z" fill="url(#paint1_linear_48_7)"/>
<path d="M342.812 83.8906V56H474.219V83.8906H425.234V216H391.797V83.8906H342.812ZM495.234 216V96H528.516V216H495.234ZM511.953 80.5312C507.005 80.5312 502.76 78.8906 499.219 75.6094C495.729 72.276 493.984 68.2917 493.984 63.6562C493.984 59.0729 495.729 55.1406 499.219 51.8594C502.76 48.526 507.005 46.8594 511.953 46.8594C516.901 46.8594 521.12 48.526 524.609 51.8594C528.151 55.1406 529.922 59.0729 529.922 63.6562C529.922 68.2917 528.151 72.276 524.609 75.6094C521.12 78.8906 516.901 80.5312 511.953 80.5312ZM555.176 216V96H586.895V117.172H588.301C590.801 110.141 594.967 104.594 600.801 100.531C606.634 96.4687 613.613 94.4375 621.738 94.4375C629.967 94.4375 636.973 96.4948 642.754 100.609C648.535 104.672 652.389 110.193 654.316 117.172H655.566C658.014 110.297 662.441 104.802 668.848 100.687C675.306 96.5208 682.936 94.4375 691.738 94.4375C702.936 94.4375 712.025 98.0052 719.004 105.141C726.035 112.224 729.551 122.276 729.551 135.297V216H696.348V141.859C696.348 135.193 694.577 130.193 691.035 126.859C687.493 123.526 683.066 121.859 677.754 121.859C671.712 121.859 666.999 123.786 663.613 127.641C660.228 131.443 658.535 136.469 658.535 142.719V216H626.27V141.156C626.27 135.271 624.577 130.583 621.191 127.094C617.858 123.604 613.457 121.859 607.988 121.859C604.29 121.859 600.957 122.797 597.988 124.672C595.072 126.495 592.754 129.073 591.035 132.406C589.316 135.687 588.457 139.542 588.457 143.969V216H555.176ZM810.527 218.344C798.184 218.344 787.559 215.844 778.652 210.844C769.798 205.792 762.975 198.656 758.184 189.437C753.392 180.167 750.996 169.203 750.996 156.547C750.996 144.203 753.392 133.37 758.184 124.047C762.975 114.724 769.72 107.458 778.418 102.25C787.168 97.0417 797.428 94.4375 809.199 94.4375C817.116 94.4375 824.486 95.7135 831.309 98.2656C838.184 100.766 844.173 104.542 849.277 109.594C854.434 114.646 858.444 121 861.309 128.656C864.173 136.26 865.605 145.167 865.605 155.375V164.516H764.277V143.891H834.277C834.277 139.099 833.236 134.854 831.152 131.156C829.069 127.458 826.178 124.568 822.48 122.484C818.835 120.349 814.59 119.281 809.746 119.281C804.694 119.281 800.215 120.453 796.309 122.797C792.454 125.089 789.434 128.187 787.246 132.094C785.059 135.948 783.939 140.245 783.887 144.984V164.594C783.887 170.531 784.98 175.661 787.168 179.984C789.408 184.307 792.559 187.641 796.621 189.984C800.684 192.328 805.501 193.5 811.074 193.5C814.772 193.5 818.158 192.979 821.23 191.938C824.303 190.896 826.934 189.333 829.121 187.25C831.309 185.167 832.975 182.615 834.121 179.594L864.902 181.625C863.34 189.021 860.137 195.479 855.293 201C850.501 206.469 844.303 210.74 836.699 213.813C829.147 216.833 820.423 218.344 810.527 218.344ZM920.605 56V216H887.324V56H920.605ZM967.812 261C963.594 261 959.635 260.661 955.938 259.984C952.292 259.359 949.271 258.552 946.875 257.562L954.375 232.719C958.281 233.917 961.797 234.568 964.922 234.672C968.099 234.776 970.833 234.047 973.125 232.484C975.469 230.922 977.37 228.266 978.828 224.516L980.781 219.438L937.734 96H972.734L997.578 184.125H998.828L1023.91 96H1059.14L1012.5 228.969C1010.26 235.427 1007.21 241.052 1003.36 245.844C999.557 250.688 994.74 254.411 988.906 257.016C983.073 259.672 976.042 261 967.812 261ZM1088.11 218.031C1082.95 218.031 1078.52 216.208 1074.82 212.562C1071.18 208.865 1069.36 204.437 1069.36 199.281C1069.36 194.177 1071.18 189.802 1074.82 186.156C1078.52 182.51 1082.95 180.687 1088.11 180.687C1093.11 180.687 1097.48 182.51 1101.23 186.156C1104.98 189.802 1106.86 194.177 1106.86 199.281C1106.86 202.719 1105.97 205.87 1104.2 208.734C1102.48 211.547 1100.21 213.812 1097.4 215.531C1094.59 217.198 1091.49 218.031 1088.11 218.031Z" fill="black"/>
<path d="M1168.4 218.266C1160.74 218.266 1153.92 216.938 1147.93 214.281C1141.94 211.573 1137.2 207.589 1133.71 202.328C1130.27 197.016 1128.55 190.401 1128.55 182.484C1128.55 175.818 1129.78 170.219 1132.23 165.687C1134.67 161.156 1138.01 157.51 1142.23 154.75C1146.45 151.99 1151.24 149.906 1156.6 148.5C1162.02 147.094 1167.7 146.104 1173.63 145.531C1180.61 144.802 1186.24 144.125 1190.51 143.5C1194.78 142.823 1197.88 141.833 1199.8 140.531C1201.73 139.229 1202.7 137.302 1202.7 134.75V134.281C1202.7 129.333 1201.13 125.505 1198.01 122.797C1194.93 120.089 1190.56 118.734 1184.88 118.734C1178.89 118.734 1174.13 120.062 1170.59 122.719C1167.04 125.323 1164.7 128.604 1163.55 132.562L1132.77 130.062C1134.34 122.771 1137.41 116.469 1141.99 111.156C1146.58 105.792 1152.49 101.677 1159.73 98.8125C1167.02 95.8958 1175.46 94.4375 1185.04 94.4375C1191.71 94.4375 1198.09 95.2187 1204.18 96.7812C1210.33 98.3437 1215.77 100.766 1220.51 104.047C1225.3 107.328 1229.08 111.547 1231.84 116.703C1234.6 121.807 1235.98 127.927 1235.98 135.062V216H1204.41V199.359H1203.48C1201.55 203.109 1198.97 206.417 1195.74 209.281C1192.51 212.094 1188.63 214.307 1184.1 215.922C1179.57 217.484 1174.34 218.266 1168.4 218.266ZM1177.93 195.297C1182.83 195.297 1187.15 194.333 1190.9 192.406C1194.65 190.427 1197.59 187.771 1199.73 184.438C1201.86 181.104 1202.93 177.328 1202.93 173.109V160.375C1201.89 161.052 1200.46 161.677 1198.63 162.25C1196.86 162.771 1194.86 163.266 1192.62 163.734C1190.38 164.151 1188.14 164.542 1185.9 164.906C1183.66 165.219 1181.63 165.505 1179.8 165.766C1175.9 166.339 1172.49 167.25 1169.57 168.5C1166.65 169.75 1164.39 171.443 1162.77 173.578C1161.16 175.661 1160.35 178.266 1160.35 181.391C1160.35 185.922 1161.99 189.385 1165.27 191.781C1168.61 194.125 1172.83 195.297 1177.93 195.297ZM1261.8 216V96H1295.08V216H1261.8ZM1278.52 80.5312C1273.57 80.5312 1269.32 78.8906 1265.78 75.6094C1262.29 72.276 1260.55 68.2917 1260.55 63.6562C1260.55 59.0729 1262.29 55.1406 1265.78 51.8594C1269.32 48.526 1273.57 46.8594 1278.52 46.8594C1283.46 46.8594 1287.68 48.526 1291.17 51.8594C1294.71 55.1406 1296.48 59.0729 1296.48 63.6562C1296.48 68.2917 1294.71 72.276 1291.17 75.6094C1287.68 78.8906 1283.46 80.5312 1278.52 80.5312Z" fill="url(#paint2_linear_48_7)"/>
<defs>
<filter id="filter0_i_48_7" x="0" y="0" width="236" height="269" filterUnits="userSpaceOnUse" color-interpolation-filters="sRGB">
<feFlood flood-opacity="0" result="BackgroundImageFix"/>
<feBlend mode="normal" in="SourceGraphic" in2="BackgroundImageFix" result="shape"/>
<feColorMatrix in="SourceAlpha" type="matrix" values="0 0 0 0 0 0 0 0 0 0 0 0 0 0 0 0 0 0 127 0" result="hardAlpha"/>
<feOffset/>
<feGaussianBlur stdDeviation="9.6"/>
<feComposite in2="hardAlpha" operator="arithmetic" k2="-1" k3="1"/>
<feColorMatrix type="matrix" values="0 0 0 0 0 0 0 0 0 0 0 0 0 0 0 0 0 0 0.25 0"/>
<feBlend mode="normal" in2="shape" result="effect1_innerShadow_48_7"/>
</filter>
<clipPath id="paint0_diamond_48_7_clip_path"><path fill-rule="evenodd" clip-rule="evenodd" d="M29.4755 2.05665C11.4362 8.3127 0.0749232 23.4515 0.000349802 41.3321C-0.0667663 57.2409 9.52835 71.4984 25.2248 78.8202C31.7711 81.8727 33.6553 82.1166 55.2033 82.7008C78.8294 83.3408 82.4462 84.0798 84.9755 88.7885C85.6591 90.0598 88.7377 97.8433 91.8163 106.084C94.895 114.324 98.8374 123.863 100.576 127.282L103.739 133.498L98.7455 140.824C87.6676 157.069 68.7036 177.589 49.3431 194.279C39.9468 202.379 37.1565 205.635 33.8069 212.412C30.2697 219.569 29.729 221.915 29.7626 229.982C29.8123 242.027 33.2588 249.992 41.9727 258.2C53.6286 269.178 52.3558 269 119.212 269H177.628L184.656 265.718C192.953 261.844 200.588 254.419 204.584 246.339C206.903 241.648 207.457 238.502 207.457 230.008C207.457 213.131 205.556 210.262 177.233 184.417C163.373 171.77 149.342 155.911 139.776 142.08L133.616 133.175L137.914 124.677C141.875 116.842 145.873 107.255 151.423 92.2842C152.625 89.0423 154.817 85.7001 156.296 84.8571C158.026 83.8706 166.959 83.0969 181.357 82.686C202.67 82.0794 204.095 81.8814 211.477 78.5033C220.509 74.3702 229.23 65.7597 233.227 57.0305C236.891 49.0278 236.93 33.7838 233.307 25.7638C229.562 17.4752 220.227 7.84851 212.06 3.854L204.972 0.388035L120.455 0.10209C41.6546 -0.165284 35.501 -0.0328315 29.4755 2.05665ZM31.049 32.0471C25.6784 36.7435 24.3237 42.3732 27.1426 48.2888C30.9098 56.1949 33.1097 56.7062 63.4735 56.7371C87.4551 56.7606 91.2322 57.0391 95.8247 59.115C104.109 62.8607 108.902 70.5267 117.931 94.4641C118.704 96.5127 119.239 95.8678 121.038 90.7344C126.534 75.0374 132.417 65.6075 140.129 60.1288C143.888 57.4575 145.43 57.3003 173.693 56.7099L203.316 56.0909L206.94 52.0481C211.13 47.3753 211.908 39.3652 208.624 34.6973C203.985 28.0996 205.962 28.2395 117.452 28.2395H35.4041L31.049 32.0471ZM112.165 168.482C103.252 180.274 88.9975 195.057 71.9972 210.14C54.8951 225.314 53.0668 228.491 57.0403 236.144C60.933 243.643 62.0007 243.763 121.076 243.364L147.718 243.185L174.36 243.005L178.046 239.487C185.389 232.478 183.859 225.479 172.962 216.223C153.932 200.059 142.344 188.821 130.728 175.262C123.861 167.247 118.182 160.715 118.106 160.746C118.031 160.777 115.357 164.257 112.165 168.482Z"/></clipPath><linearGradient id="paint0_diamond_48_7" x1="0" y1="0" x2="500" y2="500" gradientUnits="userSpaceOnUse">
<stop stop-color="#212FC5"/>
<stop offset="0.2" stop-color="#793DE7"/>
<stop offset="1" stop-color="#1B97F7"/>
</linearGradient>
<linearGradient id="paint1_linear_48_7" x1="335" y1="136" x2="1309" y2="136" gradientUnits="userSpaceOnUse">
<stop stop-color="#1A93F1"/>
<stop offset="1" stop-color="#684AE6"/>
</linearGradient>
<linearGradient id="paint2_linear_48_7" x1="335" y1="136" x2="1309" y2="136" gradientUnits="userSpaceOnUse">
<stop stop-color="#1A93F1"/>
<stop offset="1" stop-color="#684AE6"/>
</linearGradient>
</defs>
</svg>
